grf
version=1
nRows=17
nColumns=37
inDegrees=no
endheader
time	ground_force_1_vx	ground_force_1_vy	ground_force_1_vz	ground_force_1_px	ground_force_1_py	ground_force_1_pz	ground_moment_1_mx	ground_moment_1_my	ground_moment_1_mz	ground_force_2_vx	ground_force_2_vy	ground_force_2_vz	ground_force_2_px	ground_force_2_py	ground_force_2_pz	ground_moment_2_mx	ground_moment_2_my	ground_moment_2_mz	ground_force_3_vx	ground_force_3_vy	ground_force_3_vz	ground_force_3_px	ground_force_3_py	ground_force_3_pz	ground_moment_3_mx	ground_moment_3_my	ground_moment_3_mz	ground_force_4_vx	ground_force_4_vy	ground_force_4_vz	ground_force_4_px	ground_force_4_py	ground_force_4_pz	ground_moment_4_mx	ground_moment_4_my	ground_moment_4_mz
      5.24000000	      0.00000000	     -0.00000000	      0.00000000	      0.00000000	      0.00000000	      0.00000000	      0.00000000	      0.00000000	      0.00000000	      1.07052612	     64.29768372	   -450.85388184	   -305.38550304	  -1222.12322619	      0.00000000	     -0.00000000	      0.00000000	   6337.43224209	     -7.15789484	    -62.57923445	   -428.05987549	   -300.58738008	   -588.41461337	      0.00000000	      0.00000000	     -0.00000000	  -9787.19195572	      0.00000000	     -0.00000000	      0.00000000	      0.00000000	      0.00000000	      0.00000000	      0.00000000	      0.00000000	      0.00000000
      5.25000000	      0.00000000	     -0.00000000	      0.00000000	      0.00000000	      0.00000000	      0.00000000	      0.00000000	      0.00000000	      0.00000000	      1.27774417	     65.02378845	   -451.76724243	   -306.15543409	  -1222.31128113	      0.00000000	      0.00000000	      0.00000000	   6416.47631527	     -6.59937886	    -63.14364566	   -430.82797241	   -301.35996333	   -588.45084317	      0.00000000	      0.00000000	     -0.00000000	  -9908.99109211	      0.00000000	     -0.00000000	      0.00000000	      0.00000000	      0.00000000	      0.00000000	      0.00000000	      0.00000000	      0.00000000
      5.26000000	      0.00000000	     -0.00000000	      0.00000000	      0.00000000	      0.00000000	      0.00000000	      0.00000000	      0.00000000	      0.00000000	      2.21202803	     65.14217377	   -451.97406006	   -306.52432019	  -1221.36968658	      0.00000000	     -0.00000000	      0.00000000	   6394.13709854	     -6.42232262	    -64.00435582	   -433.76721191	   -301.82482480	   -589.28028889	      0.00000000	      0.00000000	     -0.00000000	  -9880.75862924	      0.00000000	     -0.00000000	      0.00000000	      0.00000000	      0.00000000	      0.00000000	      0.00000000	      0.00000000	      0.00000000
      5.27000000	      0.00000000	     -0.00000000	      0.00000000	      0.00000000	      0.00000000	      0.00000000	      0.00000000	      0.00000000	      0.00000000	      1.78421021	     65.26104736	   -451.85888672	   -306.99886428	  -1220.86431700	      0.00000000	      0.00000000	      0.00000000	   6324.74780293	     -6.69470208	    -64.71631564	   -439.06985474	   -301.85221668	   -588.53920942	      0.00000000	      0.00000000	     -0.00000000	  -9781.87232739	      0.00000000	     -0.00000000	      0.00000000	      0.00000000	      0.00000000	      0.00000000	      0.00000000	      0.00000000	      0.00000000
      5.28000000	      0.00000000	     -0.00000000	      0.00000000	      0.00000000	      0.00000000	      0.00000000	      0.00000000	      0.00000000	      0.00000000	      2.18846965	     65.73086548	   -453.73757935	   -307.90926060	  -1221.35185743	      0.00000000	     -0.00000000	      0.00000000	   6291.72685086	     -7.22139697	    -66.00629362	   -440.13922119	   -301.85972381	   -588.90601282	      0.00000000	      0.00000000	     -0.00000000	  -9789.04668724	      0.00000000	     -0.00000000	      0.00000000	      0.00000000	      0.00000000	      0.00000000	      0.00000000	      0.00000000	      0.00000000
      5.29000000	      0.00000000	     -0.00000000	      0.00000000	      0.00000000	      0.00000000	      0.00000000	      0.00000000	      0.00000000	      0.00000000	      1.90467310	     66.00373077	   -456.68280029	   -308.01119016	  -1221.13614306	      0.00000000	     -0.00000000	      0.00000000	   6264.70989483	     -7.85902556	    -66.43406609	   -442.04727173	   -302.23845487	   -589.00272048	      0.00000000	      0.00000000	     -0.00000000	  -9769.92044394	      0.00000000	     -0.00000000	      0.00000000	      0.00000000	      0.00000000	      0.00000000	      0.00000000	      0.00000000	      0.00000000
      5.30000000	      0.00000000	     -0.00000000	      0.00000000	      0.00000000	      0.00000000	      0.00000000	      0.00000000	      0.00000000	      0.00000000	      1.65294254	     66.32829285	   -458.61425781	   -309.23743721	  -1220.96611310	      0.00000000	      0.00000000	      0.00000000	   6230.66932724	     -7.88493264	    -66.81278160	   -443.60729980	   -302.50300561	   -588.45047310	      0.00000000	      0.00000000	     -0.00000000	  -9913.27202739	      0.00000000	     -0.00000000	      0.00000000	      0.00000000	      0.00000000	      0.00000000	      0.00000000	      0.00000000	      0.00000000
      5.31000000	      0.00000000	     -0.00000000	      0.00000000	      0.00000000	      0.00000000	      0.00000000	      0.00000000	      0.00000000	      0.00000000	      1.66261530	     66.39238739	   -459.48712158	   -309.35956612	  -1221.29025574	      0.00000000	     -0.00000000	      0.00000000	   6176.91583737	     -7.76963917	    -67.17605523	   -441.82208252	   -302.50692396	   -588.65752609	      0.00000000	      0.00000000	     -0.00000000	  -9808.39198106	      0.00000000	     -0.00000000	      0.00000000	      0.00000000	      0.00000000	      0.00000000	      0.00000000	      0.00000000	      0.00000000
      5.32000000	      0.00000000	     -0.00000000	      0.00000000	      0.00000000	      0.00000000	      0.00000000	      0.00000000	      0.00000000	      0.00000000	      2.43239641	     66.38359070	   -460.67727661	   -309.79349928	  -1220.90134910	      0.00000000	      0.00000000	      0.00000000	   6243.34134657	     -8.20811102	    -67.91468739	   -443.44113159	   -302.84755642	   -588.71674602	      0.00000000	      0.00000000	     -0.00000000	  -9681.98181087	      0.00000000	     -0.00000000	      0.00000000	      0.00000000	      0.00000000	      0.00000000	      0.00000000	      0.00000000	      0.00000000
      5.33000000	      0.00000000	     -0.00000000	      0.00000000	      0.00000000	      0.00000000	      0.00000000	      0.00000000	      0.00000000	      0.00000000	      2.12797403	     66.35540771	   -458.61279297	   -310.20474874	  -1219.88582778	      0.00000000	      0.00000000	      0.00000000	   6112.90807093	     -7.27429033	    -68.31020292	   -445.13342285	   -302.94642944	   -588.60734431	      0.00000000	      0.00000000	     -0.00000000	  -9758.86733888	      0.00000000	     -0.00000000	      0.00000000	      0.00000000	      0.00000000	      0.00000000	      0.00000000	      0.00000000	      0.00000000
      5.34000000	      0.00000000	     -0.00000000	      0.00000000	      0.00000000	      0.00000000	      0.00000000	      0.00000000	      0.00000000	      0.00000000	      2.85885048	     66.84780884	   -460.45962524	   -310.84093314	  -1219.87397097	      0.00000000	      0.00000000	      0.00000000	   6252.45100908	     -6.47589335	    -69.19795933	   -447.11340332	   -303.35340474	   -588.30293851	      0.00000000	     -0.00000000	     -0.00000000	  -9759.34434966	      0.00000000	     -0.00000000	      0.00000000	      0.00000000	      0.00000000	      0.00000000	      0.00000000	      0.00000000	      0.00000000
      5.35000000	      0.00000000	     -0.00000000	      0.00000000	      0.00000000	      0.00000000	      0.00000000	      0.00000000	      0.00000000	      0.00000000	      3.73902774	     67.23912811	   -461.79049683	   -311.42198782	  -1219.38964731	      0.00000000	      0.00000000	      0.00000000	   6198.42299213	     -6.43751368	    -69.15985051	   -446.73165894	   -303.41346797	   -588.43639801	      0.00000000	     -0.00000000	     -0.00000000	  -9721.11529183	      0.00000000	     -0.00000000	      0.00000000	      0.00000000	      0.00000000	      0.00000000	      0.00000000	      0.00000000	      0.00000000
      5.36000000	      0.00000000	     -0.00000000	      0.00000000	      0.00000000	      0.00000000	      0.00000000	      0.00000000	      0.00000000	      0.00000000	      4.06823301	     67.24340057	   -461.57720947	   -312.11809934	  -1219.79227386	      0.00000000	      0.00000000	      0.00000000	   6066.89727589	     -6.20976097	    -68.89091437	   -446.06329346	   -303.37387588	   -588.51316932	      0.00000000	      0.00000000	     -0.00000000	  -9647.51349590	      0.00000000	     -0.00000000	      0.00000000	      0.00000000	      0.00000000	      0.00000000	      0.00000000	      0.00000000	      0.00000000
      5.37000000	      0.00000000	     -0.00000000	      0.00000000	      0.00000000	      0.00000000	      0.00000000	      0.00000000	      0.00000000	      0.00000000	      3.74346328	     66.81842804	   -460.37673950	   -312.27460977	  -1219.51594786	      0.00000000	     -0.00000000	      0.00000000	   5823.41247146	     -6.02888089	    -68.80947823	   -444.47003174	   -303.30742305	   -588.50439008	      0.00000000	      0.00000000	     -0.00000000	  -9618.74991950	      0.00000000	     -0.00000000	      0.00000000	      0.00000000	      0.00000000	      0.00000000	      0.00000000	      0.00000000	      0.00000000
      5.38000000	      0.00000000	     -0.00000000	      0.00000000	      0.00000000	      0.00000000	      0.00000000	      0.00000000	      0.00000000	      0.00000000	      4.41748667	     66.97993469	   -459.86508179	   -313.03246012	  -1219.71258030	      0.00000000	      0.00000000	      0.00000000	   5955.01779699	     -5.75977874	    -68.22689769	   -443.27960205	   -303.75004145	   -588.25541319	      0.00000000	      0.00000000	     -0.00000000	  -9564.58290906	      0.00000000	     -0.00000000	      0.00000000	      0.00000000	      0.00000000	      0.00000000	      0.00000000	      0.00000000	      0.00000000
      5.39000000	      0.00000000	     -0.00000000	      0.00000000	      0.00000000	      0.00000000	      0.00000000	      0.00000000	      0.00000000	      0.00000000	      5.74384212	     66.35028839	   -458.92840576	   -313.52820390	  -1218.48676880	      0.00000000	      0.00000000	      0.00000000	   6009.71577872	     -5.58878538	    -67.82207440	   -440.25653076	   -303.35039472	   -588.32262128	      0.00000000	     -0.00000000	     -0.00000000	  -9560.14597971	      0.00000000	     -0.00000000	      0.00000000	      0.00000000	      0.00000000	      0.00000000	      0.00000000	      0.00000000	      0.00000000
      5.40000000	      0.00000000	     -0.00000000	      0.00000000	      0.00000000	      0.00000000	      0.00000000	      0.00000000	      0.00000000	      0.00000000	      5.57967567	     66.35891724	   -456.47976685	   -314.59512744	  -1218.81045745	      0.00000000	      0.00000000	      0.00000000	   6027.00080854	     -5.94362853	    -67.91937204	   -439.24362183	   -302.89049321	   -589.04090779	      0.00000000	     -0.00000000	     -0.00000000	  -9521.20008698	      0.00000000	     -0.00000000	      0.00000000	      0.00000000	      0.00000000	      0.00000000	      0.00000000	      0.00000000	      0.00000000
